<?xml version="1.0" encoding="utf-8"?>
<!-- Generator: Adobe Illustrator 19.1.1, SVG Export Plug-In . SVG Version: 6.00 Build 0)  -->
<svg version="1.1" id="Layer_1" xmlns="http://www.w3.org/2000/svg" xmlns:xlink="http://www.w3.org/1999/xlink" x="0px" y="0px"
	 viewBox="-233 356.9 128 128" style="enable-background:new -233 356.9 128 128;" xml:space="preserve">
<style type="text/css">
	.st0{fill:#74A8CB;}
</style>
<g>
	<path class="st0" d="M-120,392.9c0-8.8-7.2-16-16-16s-16,7.2-16,16c0,1.4,0.2,2.7,0.5,4h8.6c-0.7-1.2-1.1-2.5-1.1-4
		c0-4.4,3.6-8,8-8s8,3.6,8,8c0,2.2-0.9,4.2-2.3,5.6l-2.5-2.5v10.7h10.7l-2.6-2.6C-121.8,401.3-120,397.3-120,392.9z"/>
</g>
<g>
	<g>
		<path class="st0" d="M-113,452.9l-12-12v4h-11.1c-4.5,6.9-11,12.5-18.5,16h29.7v4L-113,452.9z"/>
	</g>
	<g>
		<g>
			<path class="st0" d="M-173,380.9c-22.1,0-40,17.9-40,40c0,4.8,0.8,9.4,2.4,13.7l-3.8,1.4l15.4,7.2l7.2-15.4l-3.7,1.4
				c-0.9-2.6-1.4-5.3-1.4-8.2c0-13.3,10.7-24,24-24s24,10.7,24,24s-10.7,24-24,24h-48v16h48c22.1,0,40-17.9,40-40
				C-133,398.8-150.9,380.9-173,380.9z"/>
		</g>
	</g>
</g>
</svg>
