<?xml version="1.0" encoding="utf-8"?>
<!-- Generator: Adobe Illustrator 19.1.1, SVG Export Plug-In . SVG Version: 6.00 Build 0)  -->
<svg version="1.1" id="Layer_1" xmlns="http://www.w3.org/2000/svg" xmlns:xlink="http://www.w3.org/1999/xlink" x="0px" y="0px"
	 viewBox="-41 164.9 512 512" style="enable-background:new -41 164.9 512 512;" xml:space="preserve">
<style type="text/css">
	.st0{fill:#74A8CB;}
</style>
<g>
	<path class="st0" d="M224.2,529.3c-5.2-3.8-5.8-9.6-5.8-9.6l-2-12.5h-62.2l-2,12.5c0,0-0.5,5.7-5.7,9.6c-5.2,3.8-9.3,7.1-5.2,7.7
		c4,0.5,41.3,0,44,0c2.8,0,40.1,0.5,44,0C233.5,536.4,229.4,533.1,224.2,529.3z"/>
	<path class="st0" d="M79.5,424.6c0-5.8-4.7-10.5-10.5-10.5H19.5c-5.8,0-10.5,4.7-10.5,10.5v109.7c0,5.8,4.7,10.5,10.5,10.5h49.6
		c5.8,0,10.5-4.7,10.5-10.5L79.5,424.6L79.5,424.6z M39.1,425.9h10.5c0.7,0,1.3,0.6,1.3,1.3c0,0.7-0.6,1.3-1.3,1.3H39.1
		c-0.7,0-1.3-0.6-1.3-1.3C37.8,426.5,38.4,425.9,39.1,425.9z M43.9,538.6c-2.9,0-5.2-2.3-5.2-5.2c0-2.9,2.3-5.2,5.2-5.2
		c2.9,0,5.2,2.3,5.2,5.2C49.1,536.2,46.8,538.6,43.9,538.6z M73,523.9H15.5v-87.5H73L73,523.9L73,523.9z"/>
	<path class="st0" d="M406.3,354H298.8c-8.1,0-14.7,6.6-14.7,14.7v153.9c0,8.1,6.6,14.7,14.7,14.7h107.5c8.1,0,14.7-6.6,14.7-14.7
		V368.7C421,360.6,414.4,354,406.3,354z M331.5,529c-4,0-7.3-3.3-7.3-7.3c0-4,3.3-7.3,7.3-7.3c4,0,7.3,3.3,7.3,7.3
		C338.9,525.8,335.6,529,331.5,529z M352.6,529c-4,0-7.3-3.3-7.3-7.3c0-4,3.3-7.3,7.3-7.3c4.1,0,7.3,3.3,7.3,7.3
		C359.9,525.8,356.6,529,352.6,529z M373.7,529c-4.1,0-7.3-3.3-7.3-7.3c0-4,3.3-7.3,7.3-7.3c4,0,7.3,3.3,7.3,7.3
		C381,525.8,377.7,529,373.7,529z M411.8,507.9H293.4v-141h118.5V507.9L411.8,507.9z"/>
	<path class="st0" d="M317.5,341.7h18V309c0-6.6-5.4-12-12-12H47.3c-6.6,0-12,5.4-12,12v92.7h18V315h264.3V341.7L317.5,341.7z"/>
	<path class="st0" d="M91.9,459.2v36h179.9v-36H91.9z M185.4,485.4c-4.5,0-8.2-3.7-8.2-8.2c0-4.5,3.7-8.2,8.2-8.2
		c4.5,0,8.2,3.7,8.2,8.2C193.7,481.7,190,485.4,185.4,485.4z"/>
</g>
</svg>
