<?xml version="1.0" encoding="utf-8"?>
<!-- Generator: Adobe Illustrator 19.1.1, SVG Export Plug-In . SVG Version: 6.00 Build 0)  -->
<svg version="1.1" id="Warstwa_1" xmlns="http://www.w3.org/2000/svg" xmlns:xlink="http://www.w3.org/1999/xlink" x="0px" y="0px"
	 viewBox="-41 320.9 512 200" style="enable-background:new -41 320.9 512 200;" xml:space="preserve">
<style type="text/css">
	.st0{fill:#74A8CB;}
</style>
<g>
	<g transform="translate(157.363029, 47.893096)">
		<path class="st0" d="M270.5,324.4c-0.5-1.5-1.9-2.5-3.4-2.5h-33.5c-1.6,0-3,1-3.4,2.5l-42.3,134.1c-0.3,1.1-0.1,2.3,0.5,3.2
			c0.7,0.9,1.8,1.5,2.9,1.5h23.1c1.6,0,3-1,3.4-2.6L247,362c0,0,0.8-2.5,3.4-2.5c2.7,0,3.3,2.6,3.3,2.6l13.5,46.8h-18.6
			c-1.6,0-3,1.1-3.5,2.6L240,430c-0.3,1.1-0.1,2.2,0.6,3.1c0.7,0.9,1.7,1.4,2.9,1.4h31.3l8.1,26.1c0.5,1.5,1.9,2.5,3.4,2.5h23.1
			c1.1,0,2.2-0.5,2.9-1.5c0.7-0.9,0.9-2.1,0.5-3.2L270.5,324.4"/>
		<path class="st0" d="M112.9,348h27.9c14.4,0,17.3,5.7,17.3,14.9v13.7c0,11.4-4.4,15.3-17.3,15.3h-27.9V348L112.9,348z
			 M198.2,457.3L167.5,413c13.2-5.5,19.9-17,19.9-34.2v-18.1c0-26.9-14-38.9-45.5-38.9H87.3c-2,0-3.6,1.6-3.6,3.6v134.1
			c0,2,1.6,3.6,3.6,3.6h22c2,0,3.6-1.6,3.6-3.6v-42.1h22.6l30.7,44.1c0.7,1,1.8,1.5,2.9,1.5h26.3h0c2,0,3.6-1.6,3.6-3.6
			C199.1,458.7,198.7,457.9,198.2,457.3L198.2,457.3z"/>
		<path class="st0" d="M56.9,321.9h-22c-2,0-3.6,1.6-3.6,3.6v134.1c0,2,1.6,3.6,3.6,3.6h22c2,0,3.6-1.6,3.6-3.6V325.5
			C60.5,323.5,58.9,321.9,56.9,321.9"/>
		<path class="st0" d="M5.3,321.9H-17c-1.9,0-3.4,1.5-3.4,3.4v105c0,13.2-10.1,17.5-16.9,17.9c-0.9,0-2,0.6-2.6,1.5
			c-0.6,0.9-0.8,1.9-0.4,2.9l5.4,17.6c0.4,1.4,2,2.4,4.5,2.4c21.4,0,39.1-16.8,39.1-39.2v-108c0-0.9-0.4-1.8-1-2.4
			C7.1,322.2,6.2,321.9,5.3,321.9"/>
	</g>
	<g>
		<path class="st0" d="M-10.2,333.2c-6.9,0-12.4,5.5-12.4,12.4c0,6.9,5.6,12.4,12.4,12.4c6.9,0,12.4-5.6,12.4-12.4
			C2.3,338.7-3.3,333.2-10.2,333.2"/>
		<path class="st0" d="M71.4,333.2c-6.9,0-12.4,5.5-12.4,12.4c0,6.9,5.5,12.4,12.4,12.4c6.8,0,12.4-5.6,12.4-12.4
			C83.8,338.7,78.2,333.2,71.4,333.2"/>
		<path class="st0" d="M30.6,321.8c-6.9,0-12.4,5.5-12.4,12.4c0,6.9,5.6,12.4,12.4,12.4c6.9,0,12.4-5.6,12.4-12.4
			C43,327.4,37.5,321.8,30.6,321.8"/>
		<path class="st0" d="M100.7,367.8c-0.7-0.5-1.5-0.8-2.4-0.8c-0.5,0-0.9,0.1-1.4,0.3c-8.4,3.2-16.9,5.7-24.7,7.5
			c-1.6,0.4-2.9,1.5-3.4,3c-5.7,15.5-20.2,30.3-35.4,45.8c-0.6,0.6-1.5,1.3-2.9,1.3c-1.4,0-2.2-0.7-2.9-1.3
			C12.6,408-1.9,393.3-7.6,377.7c-0.5-1.4-1.8-2.6-3.4-3c-7.8-1.8-16.3-4.3-24.7-7.5c-0.4-0.2-0.9-0.3-1.4-0.3
			c-0.8,0-1.7,0.3-2.3,0.8c-1.1,0.8-1.6,2.2-1.5,3.4c1.3,12.9,6.4,25.6,15.6,38.8c8.7,12.4,20,24,30.9,35.1
			c20.1,20.5,39.1,39.9,40.8,62.4c0.2,2,1.8,3.6,3.9,3.6h23.6c1.1,0,2.1-0.4,2.8-1.2c0.7-0.8,1.1-1.8,1.1-2.9
			c-0.7-15-6.4-30.1-17.3-46c-2.3-3.3-4.7-6.6-7.3-9.8c-1-1.3-0.6-2.9,0.2-3.7c0.8-0.8,1.6-1.6,2.4-2.4
			c10.9-11.1,22.2-22.7,30.9-35.1c9.2-13.2,14.3-25.8,15.6-38.7C102.3,369.9,101.7,368.6,100.7,367.8"/>
		<path class="st0" d="M5.2,462.6c-0.6-0.6-1.4-1.2-2.8-1.2c-1.8,0-2.8,1.2-3.2,1.8c-9.9,15.1-15.1,29.4-15.8,43.8
			c-0.1,1.1,0.3,2.1,1.1,2.9c0.7,0.8,1.8,1.2,2.8,1.2H11c2,0,3.7-1.6,3.9-3.6c0.5-6.9,2.7-13.9,6.6-21.1c1.4-2.5,0.3-4.9-0.5-5.9
			C17.1,475.4,12.3,470,5.2,462.6"/>
		<path class="st0" d="M30.6,379.4c7.4,0,11.7-0.4,13.2-0.4c1.8,0,3.6,1.5,3.6,3.6c0,0.6-0.1,1.1-0.3,1.4c-1,2.6-5.5,12.1-13.8,20.2
			c-0.9,0.9-2,1.1-2.7,1.1h0c-0.7,0-1.8-0.2-2.7-1.1c-8.3-8.1-12.8-17.6-13.8-20.2c-0.1-0.4-0.3-0.8-0.3-1.4c0-2.1,1.8-3.6,3.6-3.6
			C18.9,378.9,23.2,379.4,30.6,379.4L30.6,379.4"/>
	</g>
</g>
</svg>
